<mxfile host="app.diagrams.net" modified="2023-02-25T04:20:15.667Z" agent="5.0 (Windows NT 10.0; Win64; x64) AppleWebKit/537.36 (KHTML, like Gecko) Chrome/110.0.0.0 Safari/537.36" etag="Nknyb6huR_trkVS6K7LD" version="20.8.23" type="github">
  <diagram name="페이지-1" id="QD5O2Ae_S_FECvSk_11v">
    <mxGraphModel dx="1400" dy="721" grid="1" gridSize="10" guides="1" tooltips="1" connect="1" arrows="1" fold="1" page="1" pageScale="1" pageWidth="827" pageHeight="1169" math="0" shadow="0">
      <root>
        <mxCell id="0" />
        <mxCell id="1" parent="0" />
        <mxCell id="-S6iPnF_7gV_8_d4O1x5-1" value="&lt;font style=&quot;font-size: 15px;&quot;&gt;시작&lt;/font&gt;" style="ellipse;whiteSpace=wrap;html=1;fillColor=#fff2cc;strokeColor=#d6b656;" vertex="1" parent="1">
          <mxGeometry x="20" y="40" width="120" height="80" as="geometry" />
        </mxCell>
        <mxCell id="-S6iPnF_7gV_8_d4O1x5-8" value="배열의 최대 크기와, 배열 원소 하나당&lt;br&gt;(한 문자열)당 최대 길이 확인&lt;br&gt;" style="shape=hexagon;perimeter=hexagonPerimeter2;whiteSpace=wrap;html=1;fixedSize=1;fontSize=15;fillColor=#fff2cc;strokeColor=#d6b656;" vertex="1" parent="1">
          <mxGeometry x="30" y="230" width="310" height="80" as="geometry" />
        </mxCell>
        <mxCell id="-S6iPnF_7gV_8_d4O1x5-9" value="" style="shape=singleArrow;direction=south;whiteSpace=wrap;html=1;fontSize=15;" vertex="1" parent="1">
          <mxGeometry x="60" y="140" width="60" height="80" as="geometry" />
        </mxCell>
        <mxCell id="-S6iPnF_7gV_8_d4O1x5-10" value="" style="shape=singleArrow;whiteSpace=wrap;html=1;arrowWidth=0.4;arrowSize=0.4;fontSize=15;" vertex="1" parent="1">
          <mxGeometry x="350" y="240" width="80" height="60" as="geometry" />
        </mxCell>
        <mxCell id="-S6iPnF_7gV_8_d4O1x5-14" value="배열을 사전순으로 정렬&lt;br&gt;&lt;br&gt;(알파벳 순으로,&amp;nbsp;&lt;br&gt;문자열의 길이가 작은 순서로)" style="rounded=0;whiteSpace=wrap;html=1;fontSize=15;fillColor=#fff2cc;strokeColor=#d6b656;" vertex="1" parent="1">
          <mxGeometry x="470" y="210" width="250" height="120" as="geometry" />
        </mxCell>
        <mxCell id="-S6iPnF_7gV_8_d4O1x5-15" value="" style="shape=singleArrow;direction=south;whiteSpace=wrap;html=1;fontSize=15;" vertex="1" parent="1">
          <mxGeometry x="565" y="380" width="60" height="80" as="geometry" />
        </mxCell>
        <mxCell id="-S6iPnF_7gV_8_d4O1x5-16" value="문자열 하나를 만들고 제일 처음에 나오는,&lt;br&gt;문자열을 넣어둠" style="rounded=0;whiteSpace=wrap;html=1;fontSize=15;fillColor=#fff2cc;strokeColor=#d6b656;" vertex="1" parent="1">
          <mxGeometry x="450" y="490" width="290" height="100" as="geometry" />
        </mxCell>
        <mxCell id="-S6iPnF_7gV_8_d4O1x5-19" value="" style="shape=singleArrow;direction=west;whiteSpace=wrap;html=1;fontSize=15;" vertex="1" parent="1">
          <mxGeometry x="360" y="515" width="80" height="60" as="geometry" />
        </mxCell>
        <mxCell id="-S6iPnF_7gV_8_d4O1x5-20" value="배열을 인덱스가 1인 얘부터&amp;nbsp;&lt;br&gt;반복문을 돌림" style="rounded=0;whiteSpace=wrap;html=1;fontSize=15;fillColor=#fff2cc;strokeColor=#d6b656;" vertex="1" parent="1">
          <mxGeometry x="60" y="500" width="260" height="90" as="geometry" />
        </mxCell>
        <mxCell id="-S6iPnF_7gV_8_d4O1x5-21" value="" style="shape=singleArrow;direction=south;whiteSpace=wrap;html=1;fontSize=15;" vertex="1" parent="1">
          <mxGeometry x="155" y="610" width="60" height="80" as="geometry" />
        </mxCell>
        <mxCell id="-S6iPnF_7gV_8_d4O1x5-22" value="아까 넣어둔 문자열과 배열의&amp;nbsp;&lt;br&gt;반복문의 문자열 비교" style="rounded=0;whiteSpace=wrap;html=1;fontSize=15;fillColor=#fff2cc;strokeColor=#d6b656;" vertex="1" parent="1">
          <mxGeometry x="60" y="710" width="280" height="100" as="geometry" />
        </mxCell>
        <mxCell id="-S6iPnF_7gV_8_d4O1x5-24" value="" style="shape=singleArrow;whiteSpace=wrap;html=1;arrowWidth=0.4;arrowSize=0.4;fontSize=15;" vertex="1" parent="1">
          <mxGeometry x="360" y="730" width="80" height="60" as="geometry" />
        </mxCell>
        <mxCell id="-S6iPnF_7gV_8_d4O1x5-33" value="같은문자???" style="rhombus;whiteSpace=wrap;html=1;fontColor=#000000;fillColor=#ffffc0;strokeColor=#ff0000;fontSize=15;" vertex="1" parent="1">
          <mxGeometry x="440" y="690" width="180" height="130" as="geometry" />
        </mxCell>
        <mxCell id="-S6iPnF_7gV_8_d4O1x5-34" value="no" style="edgeStyle=orthogonalEdgeStyle;html=1;align=left;verticalAlign=bottom;endArrow=open;endSize=8;strokeColor=#ff0000;rounded=0;fontSize=15;" edge="1" source="-S6iPnF_7gV_8_d4O1x5-33" parent="1">
          <mxGeometry x="-1" relative="1" as="geometry">
            <mxPoint x="690" y="890" as="targetPoint" />
          </mxGeometry>
        </mxCell>
        <mxCell id="-S6iPnF_7gV_8_d4O1x5-35" value="yes" style="edgeStyle=orthogonalEdgeStyle;html=1;align=left;verticalAlign=top;endArrow=open;endSize=8;strokeColor=#ff0000;rounded=0;fontSize=15;" edge="1" source="-S6iPnF_7gV_8_d4O1x5-33" parent="1">
          <mxGeometry x="-1" relative="1" as="geometry">
            <mxPoint x="440" y="920" as="targetPoint" />
          </mxGeometry>
        </mxCell>
        <mxCell id="-S6iPnF_7gV_8_d4O1x5-38" value="새로운 문자열 만들고&amp;nbsp;&lt;br&gt;더해나간다!" style="rounded=0;whiteSpace=wrap;html=1;fontSize=15;fillColor=#fff2cc;strokeColor=#d6b656;" vertex="1" parent="1">
          <mxGeometry x="310" y="930" width="240" height="80" as="geometry" />
        </mxCell>
        <mxCell id="-S6iPnF_7gV_8_d4O1x5-39" value="반복문 탈출!" style="rounded=0;whiteSpace=wrap;html=1;fontSize=15;fillColor=#fff2cc;strokeColor=#d6b656;" vertex="1" parent="1">
          <mxGeometry x="640" y="890" width="120" height="60" as="geometry" />
        </mxCell>
        <mxCell id="-S6iPnF_7gV_8_d4O1x5-41" value="" style="edgeStyle=isometricEdgeStyle;endArrow=none;html=1;elbow=vertical;rounded=0;fontSize=15;exitX=0;exitY=0.5;exitDx=0;exitDy=0;" edge="1" parent="1" source="-S6iPnF_7gV_8_d4O1x5-43">
          <mxGeometry width="50" height="100" relative="1" as="geometry">
            <mxPoint x="400.8" y="1110" as="sourcePoint" />
            <mxPoint x="450.8" y="1010" as="targetPoint" />
          </mxGeometry>
        </mxCell>
        <mxCell id="-S6iPnF_7gV_8_d4O1x5-42" value="" style="edgeStyle=isometricEdgeStyle;endArrow=none;html=1;elbow=vertical;rounded=0;fontSize=15;exitX=0.5;exitY=1;exitDx=0;exitDy=0;" edge="1" parent="1" source="-S6iPnF_7gV_8_d4O1x5-39" target="-S6iPnF_7gV_8_d4O1x5-43">
          <mxGeometry width="50" height="100" relative="1" as="geometry">
            <mxPoint x="630.8" y="1050" as="sourcePoint" />
            <mxPoint x="680.8" y="950" as="targetPoint" />
          </mxGeometry>
        </mxCell>
        <mxCell id="-S6iPnF_7gV_8_d4O1x5-43" value="제일 마지막에 남은 문자열 반환" style="rounded=0;whiteSpace=wrap;html=1;fontSize=15;fillColor=#fff2cc;strokeColor=#d6b656;" vertex="1" parent="1">
          <mxGeometry x="430" y="1090" width="310" height="60" as="geometry" />
        </mxCell>
        <mxCell id="-S6iPnF_7gV_8_d4O1x5-47" value="" style="shape=singleArrow;direction=west;whiteSpace=wrap;html=1;fontSize=15;" vertex="1" parent="1">
          <mxGeometry x="314" y="1100" width="100" height="60" as="geometry" />
        </mxCell>
        <mxCell id="-S6iPnF_7gV_8_d4O1x5-49" value="종료!" style="ellipse;whiteSpace=wrap;html=1;fontSize=15;fillColor=#fff2cc;strokeColor=#d6b656;" vertex="1" parent="1">
          <mxGeometry x="155" y="1080" width="120" height="80" as="geometry" />
        </mxCell>
      </root>
    </mxGraphModel>
  </diagram>
</mxfile>
